<svg width="141" height="134" viewBox="0 0 141 134" fill="none" xmlns="http://www.w3.org/2000/svg">
<g id="icons" clip-path="url(#clip0_5020_65219)">
<g id="Union">
<path fill-rule="evenodd" clip-rule="evenodd" d="M34.4899 5.06766C34.4899 2.63342 32.5142 0.675049 30.0994 0.675049C27.6847 0.675049 25.709 2.65172 25.709 5.06766V13.7607H11.8422C5.58585 13.7607 0.518555 18.8305 0.518555 25.09V105.456C0.518555 111.716 5.58585 116.786 11.8422 116.786H76.2353C75.1925 113.876 74.4791 110.819 74.1864 107.634L74.1681 107.653H11.8239C10.6166 107.653 9.647 106.664 9.647 105.475V55.4722H109.987V66.6367C110.208 66.6294 110.425 66.6161 110.643 66.6028C110.965 66.5831 111.287 66.5635 111.615 66.5635C114.194 66.5635 116.7 66.8198 119.133 67.3139V25.09C119.133 18.8305 114.066 13.7607 107.81 13.7607H93.9251V20.5693C93.9251 23.0035 91.9494 24.9619 89.5346 24.9619C87.1199 24.9619 85.1442 22.9852 85.1442 20.5693V13.7614H93.9061V5.06766C93.9061 2.63342 91.9304 0.675049 89.5157 0.675049C87.1009 0.675049 85.1252 2.65172 85.1252 5.06766V13.7607H34.5078V20.5693C34.5078 23.0035 32.5321 24.9619 30.1174 24.9619C27.7027 24.9619 25.727 22.9852 25.727 20.5693V13.7614H34.4899V5.06766ZM132.734 119.622L123.333 110.221C126.171 106.223 127.85 101.339 127.85 96.0725C127.843 82.5506 116.849 71.55 103.327 71.55C89.8056 71.55 78.8123 82.5506 78.8123 96.0653C78.8123 109.58 89.8128 120.58 103.327 120.58C108.594 120.58 113.478 118.902 117.476 116.064L126.877 125.465C127.684 126.272 128.743 126.675 129.802 126.675C130.861 126.675 131.92 126.272 132.727 125.465C134.341 123.851 134.341 121.229 132.727 119.608L132.734 119.622ZM103.327 112.31C94.3729 112.31 87.0897 105.027 87.0897 96.0725C87.0897 87.1179 94.3729 79.8346 103.327 79.8346C112.282 79.8346 119.565 87.1179 119.565 96.0725C119.565 105.027 112.282 112.31 103.327 112.31ZM46.9124 91.9827C41.3445 91.9827 37.9607 87.8298 37.9607 80.5393C37.9607 73.2488 41.3445 69.0959 46.9124 69.0959C52.4802 69.0959 55.864 73.2795 55.864 80.5393C55.864 87.8606 52.4802 91.9827 46.9124 91.9827ZM46.9124 88.1682C49.4963 88.1682 51.1575 85.6765 51.1267 80.5393C51.1267 75.4636 49.4963 72.8796 46.9124 72.8796C44.3284 72.8796 42.698 75.4636 42.698 80.5393C42.6672 85.6765 44.3284 88.1682 46.9124 88.1682ZM18.0715 87.7375V84.0769L27.4846 69.4036H33.2986V84.0154H36.1287V87.7375H33.2986V91.675H28.8997V87.7375H18.0715ZM22.7473 84.0154H28.9612V74.4792H28.7458L22.7473 83.8308V84.0154ZM57.8191 84.0769V87.7375H68.6472V91.675H73.0461V87.7375H75.8762V84.0154H73.0461V69.4036H67.2322L57.8191 84.0769ZM68.7087 84.0154H62.4949V83.8308L68.4934 74.4792H68.7087V84.0154Z" fill="#333333"/>
<path fill-rule="evenodd" clip-rule="evenodd" d="M34.4899 5.06766C34.4899 2.63342 32.5142 0.675049 30.0994 0.675049C27.6847 0.675049 25.709 2.65172 25.709 5.06766V13.7607H11.8422C5.58585 13.7607 0.518555 18.8305 0.518555 25.09V105.456C0.518555 111.716 5.58585 116.786 11.8422 116.786H76.2353C75.1925 113.876 74.4791 110.819 74.1864 107.634L74.1681 107.653H11.8239C10.6166 107.653 9.647 106.664 9.647 105.475V55.4722H109.987V66.6367C110.208 66.6294 110.425 66.6161 110.643 66.6028C110.965 66.5831 111.287 66.5635 111.615 66.5635C114.194 66.5635 116.7 66.8198 119.133 67.3139V25.09C119.133 18.8305 114.066 13.7607 107.81 13.7607H93.9251V20.5693C93.9251 23.0035 91.9494 24.9619 89.5346 24.9619C87.1199 24.9619 85.1442 22.9852 85.1442 20.5693V13.7614H93.9061V5.06766C93.9061 2.63342 91.9304 0.675049 89.5157 0.675049C87.1009 0.675049 85.1252 2.65172 85.1252 5.06766V13.7607H34.5078V20.5693C34.5078 23.0035 32.5321 24.9619 30.1174 24.9619C27.7027 24.9619 25.727 22.9852 25.727 20.5693V13.7614H34.4899V5.06766ZM132.734 119.622L123.333 110.221C126.171 106.223 127.85 101.339 127.85 96.0725C127.843 82.5506 116.849 71.55 103.327 71.55C89.8056 71.55 78.8123 82.5506 78.8123 96.0653C78.8123 109.58 89.8128 120.58 103.327 120.58C108.594 120.58 113.478 118.902 117.476 116.064L126.877 125.465C127.684 126.272 128.743 126.675 129.802 126.675C130.861 126.675 131.92 126.272 132.727 125.465C134.341 123.851 134.341 121.229 132.727 119.608L132.734 119.622ZM103.327 112.31C94.3729 112.31 87.0897 105.027 87.0897 96.0725C87.0897 87.1179 94.3729 79.8346 103.327 79.8346C112.282 79.8346 119.565 87.1179 119.565 96.0725C119.565 105.027 112.282 112.31 103.327 112.31ZM46.9124 91.9827C41.3445 91.9827 37.9607 87.8298 37.9607 80.5393C37.9607 73.2488 41.3445 69.0959 46.9124 69.0959C52.4802 69.0959 55.864 73.2795 55.864 80.5393C55.864 87.8606 52.4802 91.9827 46.9124 91.9827ZM46.9124 88.1682C49.4963 88.1682 51.1575 85.6765 51.1267 80.5393C51.1267 75.4636 49.4963 72.8796 46.9124 72.8796C44.3284 72.8796 42.698 75.4636 42.698 80.5393C42.6672 85.6765 44.3284 88.1682 46.9124 88.1682ZM18.0715 87.7375V84.0769L27.4846 69.4036H33.2986V84.0154H36.1287V87.7375H33.2986V91.675H28.8997V87.7375H18.0715ZM22.7473 84.0154H28.9612V74.4792H28.7458L22.7473 83.8308V84.0154ZM57.8191 84.0769V87.7375H68.6472V91.675H73.0461V87.7375H75.8762V84.0154H73.0461V69.4036H67.2322L57.8191 84.0769ZM68.7087 84.0154H62.4949V83.8308L68.4934 74.4792H68.7087V84.0154Z" fill="url(#paint0_linear_5020_65219)" fill-opacity="0.2"/>
</g>
</g>
<defs>
<linearGradient id="paint0_linear_5020_65219" x1="67.2279" y1="22.55" x2="67.2279" y2="126.675" gradientUnits="userSpaceOnUse">
<stop stop-color="white"/>
<stop offset="1" stop-opacity="0"/>
</linearGradient>
<clipPath id="clip0_5020_65219">
<rect width="140" height="132.419" fill="white" transform="translate(0.5 0.675049)"/>
</clipPath>
</defs>
</svg>
