<svg xmlns="http://www.w3.org/2000/svg" width="50" height="50" viewBox="0 0 50 50" fill="none">
  <path d="M11.459 16.6673H12.5007V17.709C12.5007 18.2615 12.7201 18.7914 13.1108 19.1821C13.5015 19.5728 14.0315 19.7923 14.584 19.7923C15.1365 19.7923 15.6664 19.5728 16.0571 19.1821C16.4478 18.7914 16.6673 18.2615 16.6673 17.709V16.6673H17.709C18.2615 16.6673 18.7914 16.4478 19.1821 16.0571C19.5728 15.6664 19.7923 15.1365 19.7923 14.584C19.7923 14.0315 19.5728 13.5015 19.1821 13.1108C18.7914 12.7201 18.2615 12.5007 17.709 12.5007H16.6673V11.459C16.6673 10.9065 16.4478 10.3765 16.0571 9.98585C15.6664 9.59515 15.1365 9.37565 14.584 9.37565C14.0315 9.37565 13.5015 9.59515 13.1108 9.98585C12.7201 10.3765 12.5007 10.9065 12.5007 11.459V12.5007H11.459C10.9065 12.5007 10.3765 12.7201 9.98585 13.1108C9.59515 13.5015 9.37565 14.0315 9.37565 14.584C9.37565 15.1365 9.59515 15.6664 9.98585 16.0571C10.3765 16.4478 10.9065 16.6673 11.459 16.6673ZM10.1673 39.834C10.5577 40.222 11.0857 40.4398 11.6361 40.4398C12.1865 40.4398 12.7145 40.222 13.1048 39.834L14.584 38.3548L16.0632 39.834C16.4535 40.222 16.9815 40.4398 17.5319 40.4398C18.0823 40.4398 18.6103 40.222 19.0007 39.834C19.3887 39.4436 19.6065 38.9156 19.6065 38.3652C19.6065 37.8149 19.3887 37.2868 19.0007 36.8965L17.5215 35.4173L19.0007 33.9382C19.342 33.5396 19.5203 33.027 19.5001 32.5026C19.4798 31.9783 19.2624 31.4809 18.8914 31.1099C18.5204 30.7389 18.023 30.5215 17.4987 30.5013C16.9744 30.481 16.4617 30.6593 16.0632 31.0007L14.584 32.4798L13.1048 31.0007C12.7063 30.6593 12.1936 30.481 11.6693 30.5013C11.145 30.5215 10.6476 30.7389 10.2766 31.1099C9.90553 31.4809 9.68817 31.9783 9.66792 32.5026C9.64767 33.027 9.82601 33.5396 10.1673 33.9382L11.6465 35.4173L10.1673 36.8965C9.7793 37.2868 9.5615 37.8149 9.5615 38.3652C9.5615 38.9156 9.7793 39.4436 10.1673 39.834ZM41.6673 2.08398H8.33398C6.67638 2.08398 5.08667 2.74246 3.91457 3.91457C2.74246 5.08667 2.08398 6.67638 2.08398 8.33398V41.6673C2.08398 43.3249 2.74246 44.9146 3.91457 46.0867C5.08667 47.2588 6.67638 47.9173 8.33398 47.9173H41.6673C43.3249 47.9173 44.9146 47.2588 46.0867 46.0867C47.2588 44.9146 47.9173 43.3249 47.9173 41.6673V8.33398C47.9173 6.67638 47.2588 5.08667 46.0867 3.91457C44.9146 2.74246 43.3249 2.08398 41.6673 2.08398ZM22.9173 43.7507H8.33398C7.78145 43.7507 7.25155 43.5312 6.86085 43.1405C6.47014 42.7498 6.25065 42.2199 6.25065 41.6673V27.084H22.9173V43.7507ZM22.9173 22.9173H6.25065V8.33398C6.25065 7.78145 6.47014 7.25155 6.86085 6.86085C7.25155 6.47014 7.78145 6.25065 8.33398 6.25065H22.9173V22.9173ZM43.7507 41.6673C43.7507 42.2199 43.5312 42.7498 43.1405 43.1405C42.7498 43.5312 42.2199 43.7507 41.6673 43.7507H27.084V27.084H43.7507V41.6673ZM43.7507 22.9173H27.084V6.25065H41.6673C42.2199 6.25065 42.7498 6.47014 43.1405 6.86085C43.5312 7.25155 43.7507 7.78145 43.7507 8.33398V22.9173ZM32.2923 34.3757H38.5423C39.0949 34.3757 39.6248 34.1562 40.0155 33.7655C40.4062 33.3748 40.6257 32.8449 40.6257 32.2923C40.6257 31.7398 40.4062 31.2099 40.0155 30.8192C39.6248 30.4285 39.0949 30.209 38.5423 30.209H32.2923C31.7398 30.209 31.2099 30.4285 30.8192 30.8192C30.4285 31.2099 30.209 31.7398 30.209 32.2923C30.209 32.8449 30.4285 33.3748 30.8192 33.7655C31.2099 34.1562 31.7398 34.3757 32.2923 34.3757ZM38.5423 12.5007H32.2923C31.7398 12.5007 31.2099 12.7201 30.8192 13.1108C30.4285 13.5015 30.209 14.0315 30.209 14.584C30.209 15.1365 30.4285 15.6664 30.8192 16.0571C31.2099 16.4478 31.7398 16.6673 32.2923 16.6673H38.5423C39.0949 16.6673 39.6248 16.4478 40.0155 16.0571C40.4062 15.6664 40.6257 15.1365 40.6257 14.584C40.6257 14.0315 40.4062 13.5015 40.0155 13.1108C39.6248 12.7201 39.0949 12.5007 38.5423 12.5007ZM32.2923 40.6257H38.5423C39.0949 40.6257 39.6248 40.4062 40.0155 40.0155C40.4062 39.6248 40.6257 39.0949 40.6257 38.5423C40.6257 37.9898 40.4062 37.4599 40.0155 37.0692C39.6248 36.6785 39.0949 36.459 38.5423 36.459H32.2923C31.7398 36.459 31.2099 36.6785 30.8192 37.0692C30.4285 37.4599 30.209 37.9898 30.209 38.5423C30.209 39.0949 30.4285 39.6248 30.8192 40.0155C31.2099 40.4062 31.7398 40.6257 32.2923 40.6257Z" fill="#F0F0F0"/>
  </svg>