<svg width="28" height="28" viewBox="0 0 28 28" fill="none" xmlns="http://www.w3.org/2000/svg">
<path d="M8.16634 8.16683C7.52201 8.16683 6.99967 8.68916 6.99967 9.3335C6.99967 9.97783 7.52201 10.5002 8.16634 10.5002H15.1663C15.8107 10.5002 16.333 9.97783 16.333 9.3335C16.333 8.68916 15.8107 8.16683 15.1663 8.16683H8.16634Z" fill="#A8AFBF"/>
<path d="M6.99967 14.0002C6.99967 13.3558 7.52201 12.8335 8.16634 12.8335H15.1663C15.8107 12.8335 16.333 13.3558 16.333 14.0002C16.333 14.6445 15.8107 15.1668 15.1663 15.1668H8.16634C7.52201 15.1668 6.99967 14.6445 6.99967 14.0002Z" fill="#A8AFBF"/>
<path d="M8.16634 17.5002C7.52201 17.5002 6.99967 18.0225 6.99967 18.6668C6.99967 19.3112 7.52201 19.8335 8.16634 19.8335H15.1663C15.8107 19.8335 16.333 19.3112 16.333 18.6668C16.333 18.0225 15.8107 17.5002 15.1663 17.5002H8.16634Z" fill="#A8AFBF"/>
<path fill-rule="evenodd" clip-rule="evenodd" d="M6.56217 3.50016H8.20565C8.99484 2.76674 10.0882 2.3335 11.2288 2.3335H21.4371C23.6399 2.3335 25.6663 3.94923 25.6663 6.22238V17.1113C25.6663 19.3844 23.6399 21.0002 21.4371 21.0002H20.9297C20.5691 22.98 18.8573 24.5002 16.7705 24.5002H6.56217C4.20922 24.5002 2.33301 22.5675 2.33301 20.2224V7.77794C2.33301 5.43278 4.20922 3.50016 6.56217 3.50016ZM21.4371 18.6668H20.9997V7.77794C20.9997 6.55791 20.4919 5.44953 19.6734 4.66683H21.4371C22.6172 4.66683 23.333 5.48866 23.333 6.22238V17.1113C23.333 17.845 22.6172 18.6668 21.4371 18.6668ZM6.56217 5.8335C5.53239 5.8335 4.66634 6.68666 4.66634 7.77794V20.2224C4.66634 21.3137 5.53239 22.1668 6.56217 22.1668H16.7705C17.8003 22.1668 18.6663 21.3137 18.6663 20.2224V7.77794C18.6663 6.68666 17.8003 5.8335 16.7705 5.8335H6.56217Z" fill="#A8AFBF"/>
</svg>
