<svg width="130" height="32" viewBox="0 0 130 32" fill="none" xmlns="http://www.w3.org/2000/svg">
<g clip-path="url(#clip0_370_21756)">
<path d="M35.8203 27.0398C34.8503 24.8398 33.4403 22.8498 31.6703 21.1798C29.9003 19.5098 27.8103 18.1898 25.5103 17.2998C25.2603 18.6498 24.8503 19.9598 24.3003 21.2198C27.4903 22.5698 30.0703 24.9598 31.5903 27.9798C31.2203 28.0098 30.8803 28.0298 30.5203 28.0298C27.3903 28.0298 24.3503 27.0498 21.8403 25.2398L21.5903 25.0598C21.5003 24.9998 21.4203 24.9498 21.3403 24.8798C20.2303 24.0198 19.2603 23.0098 18.4603 21.8898C18.3903 21.7998 18.3403 21.6998 18.2803 21.5998C18.2203 21.4998 18.1503 21.4098 18.0903 21.3098C17.9603 21.1098 17.8403 20.8998 17.7203 20.6898H17.4403C16.1003 20.7798 14.7903 21.0698 13.5303 21.5298C14.0103 22.5198 14.5903 23.4698 15.2503 24.3598L15.6103 24.8498C16.4503 25.9198 17.4103 26.8998 18.4803 27.7698C18.5603 27.8298 18.6503 27.8998 18.7403 27.9598C18.8303 28.0198 18.9003 28.0798 18.9903 28.1498C22.2703 30.6498 26.3303 31.9998 30.5103 32.0098C31.3003 32.0098 32.0803 31.9498 32.8603 31.8498C34.2703 31.6798 35.6503 31.3498 36.9803 30.8698C36.7403 29.5598 36.3603 28.2698 35.8303 27.0398H35.8203Z" fill="black"/>
<path d="M16.04 15.5002C15.97 14.9802 15.93 14.4502 15.93 13.9202C15.93 11.0902 16.81 8.32023 18.46 5.98023C20.12 8.32023 21 11.0802 21 13.9202C21 14.4502 20.96 14.9702 20.89 15.4902C20.89 15.5902 20.86 15.6902 20.85 15.7902C20.84 15.8902 20.82 15.9902 20.81 16.0902C20.59 17.4802 20.16 18.8202 19.52 20.0802L19.36 20.3702C19.3 20.4702 19.25 20.5702 19.2 20.6702C19.08 20.8802 18.96 21.0902 18.83 21.2902C18.87 21.3702 18.92 21.4502 18.97 21.5202C19.73 22.6002 20.65 23.5602 21.7 24.3902C22.37 23.4902 22.95 22.5302 23.45 21.5202L23.58 21.2402C23.62 21.1502 23.67 21.0602 23.71 20.9602C24.26 19.7002 24.66 18.3802 24.91 17.0402C24.91 16.9402 24.94 16.8402 24.95 16.7302C24.96 16.6302 24.98 16.5302 25 16.4202C25.14 15.5602 25.21 14.7002 25.22 13.8302C25.22 9.89023 23.89 6.05023 21.42 2.91023C20.58 1.84023 19.63 0.860234 18.57 -0.00976562C16.46 1.70023 14.76 3.83023 13.59 6.23023C12.42 8.63023 11.8 11.2502 11.79 13.9102C11.79 14.7502 11.87 15.5902 12.01 16.4202C13.32 15.9702 14.67 15.6602 16.04 15.4902V15.5002Z" fill="black"/>
<path d="M15.1197 25.2102C12.5997 27.0302 9.54973 28.0102 6.39973 28.0102C6.04973 28.0102 5.70973 27.9802 5.35973 27.9602C6.88973 24.9302 9.47973 22.5402 12.6897 21.2002C12.7797 21.1602 12.8797 21.1102 12.9797 21.0802C13.0797 21.0402 13.1697 20.9902 13.2697 20.9602C14.5997 20.4702 15.9897 20.1802 17.3997 20.0802H18.0897C18.2197 20.0802 18.3497 20.0602 18.4597 20.0602C18.5697 20.0602 18.6897 20.0602 18.8097 20.0802C18.8497 20.0002 18.8997 19.9302 18.9297 19.8502C19.5297 18.6602 19.9497 17.3902 20.1597 16.0802C19.5997 16.0302 19.0497 15.9902 18.4697 15.9902C17.8797 15.9902 17.2997 16.0302 16.7097 16.0902L16.3997 16.1202L16.0897 16.1502C14.7197 16.3202 13.3597 16.6402 12.0597 17.1002C11.9597 17.1302 11.8697 17.1802 11.7597 17.2202C11.6597 17.2602 11.5597 17.3002 11.4597 17.3402C9.15973 18.2202 7.05973 19.5402 5.28973 21.2102C3.51973 22.8802 2.09973 24.8702 1.12973 27.0702C0.599727 28.3002 0.209727 29.5902 -0.0302734 30.9002C1.28973 31.3702 2.65973 31.6902 4.05973 31.8502C4.83973 31.9502 5.61973 32.0002 6.39973 32.0102C10.5897 32.0102 14.6597 30.6502 17.9497 28.1502C16.8897 27.2702 15.9397 26.2902 15.0897 25.2202L15.1197 25.2102Z" fill="black"/>
<path d="M42.8301 18.3301H48.0601C49.9201 18.3301 50.1601 18.3301 50.7801 18.5101C51.5001 18.6901 51.9801 19.2301 52.1901 20.0601C52.3501 20.7101 52.4001 21.2801 52.4001 22.7701C52.4001 25.1601 52.2401 26.0901 51.7101 26.7101C51.1801 27.3301 50.5101 27.4801 48.0701 27.4801H42.8401V18.3301H42.8301ZM48.0801 25.1401C50.0801 25.1401 50.2201 25.0001 50.2201 22.9301C50.2201 21.8001 50.1401 21.3001 49.9301 21.0001C49.7101 20.7001 49.4101 20.6201 48.0701 20.6201H45.0201V25.1501H48.0801V25.1401Z" fill="black"/>
<path d="M60.7104 18.3301V27.4801H58.4004V18.3301H60.7104Z" fill="black"/>
<path d="M76.31 22.2902V22.5402C76.31 23.4502 76.27 25.0102 76.24 25.4502C76.15 26.5302 75.69 27.1502 74.81 27.3702C74.07 27.5602 73.32 27.6202 71.34 27.6202C68.85 27.6202 68.08 27.5002 67.47 26.9702C66.86 26.4502 66.71 25.7702 66.71 22.7602C66.71 18.4802 67.03 18.2002 71.72 18.2002C74.41 18.2002 75.41 18.4202 75.89 19.1502C76.19 19.6002 76.28 20.1602 76.29 21.5102H74.08C74.08 20.9802 74.05 20.8702 73.91 20.7402C73.69 20.5502 73.17 20.5002 71.53 20.5002C68.93 20.5002 68.91 20.5002 68.91 22.8802C68.91 24.4302 68.97 24.9002 69.21 25.1402C69.4 25.3302 69.58 25.3702 70.21 25.4002L71.5 25.4302C74.07 25.4302 74.14 25.4002 74.14 24.3902V24.1302H71.24V22.3002H76.29L76.31 22.2902Z" fill="black"/>
<path d="M84.6303 18.3301V27.4801H82.3203V18.3301H84.6303Z" fill="black"/>
<path d="M99.4097 18.3301V20.6601H96.1796V27.4701H93.8697V20.6601H90.6396V18.3301H99.4097Z" fill="black"/>
<path d="M113.34 25.9301H108.55L107.93 27.4801H105.41L109.25 18.3301H112.68L116.47 27.4801H113.96L113.34 25.9301ZM111.17 20.4601H110.74L109.34 23.9301H112.58L111.18 20.4601H111.17Z" fill="black"/>
<path d="M124.81 18.3301V25.1401H129.96V27.4701H122.49V18.3301H124.8H124.81Z" fill="black"/>
<path d="M48.7003 10.5302L46.5003 4.49023H42.8203V13.8002H45.0303L44.9803 6.83023H44.9903L47.7603 13.8002H49.6203L52.4003 6.83023L52.3503 13.8002H54.5603V4.49023H50.8803L48.6903 10.5302H48.7003Z" fill="black"/>
<path d="M70.9501 8.51003V10.4H73.3201C73.3201 10.65 73.3201 10.9 73.2801 11.15C73.2701 11.27 73.2101 11.39 73.1201 11.48C73.0301 11.57 72.9101 11.62 72.7801 11.64C72.0701 11.7 71.3501 11.73 70.6401 11.72C69.6301 11.7 69.0201 11.68 68.8201 11.66C68.6301 11.64 68.4501 11.56 68.3101 11.43C68.1701 11.3 68.0901 11.13 68.0701 10.94C68.0001 10.35 67.9701 9.75003 67.9801 9.15003C67.9701 8.61003 67.9901 8.08003 68.0701 7.54003C68.0801 7.37003 68.1501 7.21003 68.2601 7.08003C68.3701 6.95003 68.5201 6.86003 68.6901 6.82003C69.3301 6.72003 69.9801 6.69003 70.6301 6.71003C71.3301 6.70003 72.0301 6.72003 72.7301 6.80003C72.8401 6.80003 72.9501 6.85003 73.0401 6.92003C73.1301 6.99003 73.1901 7.08003 73.2201 7.19003C73.2501 7.36003 73.2601 7.53003 73.2501 7.71003H75.5001C75.5001 7.32003 75.5001 7.04003 75.4801 6.85003C75.4801 6.32003 75.3401 5.80003 75.0901 5.33003C74.7901 4.93003 74.3501 4.66003 73.8501 4.58003C72.8601 4.41003 71.8601 4.34003 70.8601 4.37003C69.9901 4.36003 69.1201 4.40003 68.2601 4.48003C67.9001 4.51003 67.5501 4.57003 67.2001 4.67003C66.9701 4.75003 66.7501 4.87003 66.5701 5.03003C66.1901 5.43003 65.9601 5.93003 65.9101 6.46003C65.7901 7.30003 65.7401 8.15003 65.7601 9.00003C65.7601 9.72003 65.7601 10.37 65.7901 11C65.7901 11.45 65.8501 11.9 65.9601 12.33C66.0401 12.69 66.2201 13.02 66.5001 13.28C66.7801 13.54 67.1301 13.71 67.5001 13.77C68.4801 13.92 69.4801 13.98 70.4701 13.96C71.2501 13.96 71.9301 13.96 72.5101 13.92C73.0101 13.9 73.5101 13.83 74.0001 13.72C74.8801 13.49 75.3601 12.84 75.4501 11.77C75.5001 11.11 75.5301 10.17 75.5301 8.95003V8.55003H70.9701L70.9501 8.51003Z" fill="black"/>
<path d="M80.4095 4.48998L76.5195 13.8H79.0795L79.7095 12.22H84.5795L85.2195 13.8H87.7595L83.9095 4.47998H80.4095V4.48998ZM80.4995 10.18L81.9195 6.65998H82.3695L83.7895 10.18H80.5095H80.4995Z" fill="black"/>
<path d="M97.1102 6.72023V4.49023H88.8502V6.72023H93.4802L88.7402 11.5502V13.8002H97.2702V11.5502H92.3002L97.1102 6.72023Z" fill="black"/>
<path d="M107.59 4.49999C106.52 4.37999 105.45 4.32999 104.38 4.34999C103.26 4.32999 102.15 4.37999 101.04 4.49999C100.64 4.55999 100.27 4.73999 99.9797 5.01999C99.6897 5.29999 99.5097 5.65999 99.4597 6.04999C99.2997 7.06999 99.2297 8.10999 99.2597 9.14999C99.2297 10.18 99.2997 11.22 99.4597 12.24C99.5097 12.63 99.6897 12.99 99.9797 13.27C100.27 13.55 100.64 13.73 101.04 13.79C102.13 13.91 103.22 13.96 104.32 13.94C105.42 13.97 106.51 13.92 107.6 13.79C108 13.73 108.38 13.55 108.66 13.27C108.95 12.99 109.13 12.63 109.18 12.24C109.34 11.22 109.41 10.19 109.38 9.14999C109.41 8.10999 109.34 7.07999 109.18 6.04999C109.13 5.65999 108.94 5.29999 108.66 5.01999C108.37 4.73999 108 4.55999 107.6 4.49999H107.59ZM107.05 10.62C107.03 10.83 106.94 11.02 106.79 11.17C106.64 11.32 106.44 11.41 106.23 11.43C105.59 11.5 104.94 11.53 104.3 11.51C103.65 11.52 103.01 11.5 102.37 11.43C102.16 11.4 101.96 11.31 101.81 11.16C101.66 11.01 101.57 10.82 101.55 10.62C101.5 10.21 101.48 9.78999 101.49 9.36999C101.47 8.75999 101.51 8.13999 101.61 7.53999C101.63 7.38999 101.7 7.24999 101.8 7.13999C101.9 7.02999 102.03 6.93999 102.17 6.88999C102.85 6.77999 103.54 6.74999 104.22 6.77999H105.71C106.07 6.75999 106.43 6.85999 106.73 7.04999C106.96 7.30999 107.08 7.63999 107.08 7.97999C107.11 8.25999 107.12 8.72999 107.12 9.40999C107.13 9.80999 107.12 10.22 107.06 10.62H107.05Z" fill="black"/>
<path d="M118.57 11.4302L115.05 4.49023H111.35V13.8002H113.6V6.85023L117.14 13.8002H120.81V4.49023H118.57V11.4302Z" fill="black"/>
<path d="M122.8 13.79H130V11.55H125.01V10.05H130V8.00998H125.01V6.66998H130V4.47998H122.8V13.79Z" fill="black"/>
<path d="M56.5596 13.79H63.7496V11.55H58.7696V10.05H63.7496V8.00998H58.7696V6.66998H63.7496V4.47998H56.5596V13.79Z" fill="black"/>
</g>
<defs>
<clipPath id="clip0_370_21756">
<rect width="130" height="32" fill="white"/>
</clipPath>
</defs>
</svg>
