<svg width="19" height="15" viewBox="0 0 19 15" fill="none" xmlns="http://www.w3.org/2000/svg">
<path fill-rule="evenodd" clip-rule="evenodd" d="M0 0.904762C0 0.405076 0.472588 0 1.05556 0H17.9444C18.5274 0 19 0.405076 19 0.904762C19 1.40445 18.5274 1.80952 17.9444 1.80952H1.05556C0.472588 1.80952 0 1.40445 0 0.904762Z" fill="#000"/>
<path fill-rule="evenodd" clip-rule="evenodd" d="M0 7.23826C0 6.73857 0.472588 6.3335 1.05556 6.3335H17.9444C18.5274 6.3335 19 6.73857 19 7.23826C19 7.73794 18.5274 8.14302 17.9444 8.14302H1.05556C0.472588 8.14302 0 7.73794 0 7.23826Z" fill="#000"/>
<path fill-rule="evenodd" clip-rule="evenodd" d="M0 13.5713C0 13.0716 0.472588 12.6665 1.05556 12.6665H17.9444C18.5274 12.6665 19 13.0716 19 13.5713C19 14.071 18.5274 14.476 17.9444 14.476H1.05556C0.472588 14.476 0 14.071 0 13.5713Z" fill="#000"/>
</svg>
