<svg xmlns="http://www.w3.org/2000/svg" width="50" height="50" viewBox="0 0 50 50" fill="none">
  <path d="M39.5827 12.5H33.3327V10.4167C33.3327 9.3116 32.8937 8.25179 32.1123 7.47039C31.3309 6.68899 30.2711 6.25 29.166 6.25H20.8327C19.7276 6.25 18.6678 6.68899 17.8864 7.47039C17.105 8.25179 16.666 9.3116 16.666 10.4167V12.5H10.416C8.75841 12.5 7.1687 13.1585 5.9966 14.3306C4.8245 15.5027 4.16602 17.0924 4.16602 18.75V37.5C4.16602 39.1576 4.8245 40.7473 5.9966 41.9194C7.1687 43.0915 8.75841 43.75 10.416 43.75H39.5827C41.2403 43.75 42.83 43.0915 44.0021 41.9194C45.1742 40.7473 45.8327 39.1576 45.8327 37.5V18.75C45.8327 17.0924 45.1742 15.5027 44.0021 14.3306C42.83 13.1585 41.2403 12.5 39.5827 12.5ZM20.8327 10.4167H29.166V12.5H20.8327V10.4167ZM41.666 37.5C41.666 38.0525 41.4465 38.5824 41.0558 38.9731C40.6651 39.3638 40.1352 39.5833 39.5827 39.5833H10.416C9.86348 39.5833 9.33358 39.3638 8.94288 38.9731C8.55218 38.5824 8.33268 38.0525 8.33268 37.5V27.0833H16.666V29.1667C16.666 29.7192 16.8855 30.2491 17.2762 30.6398C17.6669 31.0305 18.1968 31.25 18.7493 31.25C19.3019 31.25 19.8318 31.0305 20.2225 30.6398C20.6132 30.2491 20.8327 29.7192 20.8327 29.1667V27.0833H29.166V29.1667C29.166 29.7192 29.3855 30.2491 29.7762 30.6398C30.1669 31.0305 30.6968 31.25 31.2493 31.25C31.8019 31.25 32.3318 31.0305 32.7225 30.6398C33.1132 30.2491 33.3327 29.7192 33.3327 29.1667V27.0833H41.666V37.5ZM41.666 22.9167H8.33268V18.75C8.33268 18.1975 8.55218 17.6676 8.94288 17.2769C9.33358 16.8862 9.86348 16.6667 10.416 16.6667H39.5827C40.1352 16.6667 40.6651 16.8862 41.0558 17.2769C41.4465 17.6676 41.666 18.1975 41.666 18.75V22.9167Z" fill="#F0F0F0"/>
  </svg>