<svg xmlns="http://www.w3.org/2000/svg" width="50" height="50" viewBox="0 0 50 50" fill="none">
  <path d="M45.834 10.4173H4.16732C3.61478 10.4173 3.08488 10.6368 2.69418 11.0275C2.30348 11.4182 2.08398 11.9481 2.08398 12.5007V20.834C2.08761 22.1235 2.48998 23.3802 3.23594 24.432C3.9819 25.4838 5.03492 26.2792 6.25065 26.709V45.834C6.25065 46.3865 6.47014 46.9164 6.86085 47.3071C7.25155 47.6978 7.78145 47.9173 8.33398 47.9173H41.6673C42.2199 47.9173 42.7498 47.6978 43.1405 47.3071C43.5312 46.9164 43.7507 46.3865 43.7507 45.834V26.709C44.9664 26.2792 46.0194 25.4838 46.7654 24.432C47.5113 23.3802 47.9137 22.1235 47.9173 20.834V12.5007C47.9173 11.9481 47.6978 11.4182 47.3071 11.0275C46.9164 10.6368 46.3865 10.4173 45.834 10.4173ZM31.2507 14.584H35.4173V20.834C35.4173 21.3865 35.1978 21.9164 34.8071 22.3071C34.4164 22.6978 33.8865 22.9173 33.334 22.9173C32.7815 22.9173 32.2515 22.6978 31.8608 22.3071C31.4701 21.9164 31.2507 21.3865 31.2507 20.834V14.584ZM22.9173 14.584H27.084V20.834C27.084 21.3865 26.8645 21.9164 26.4738 22.3071C26.0831 22.6978 25.5532 22.9173 25.0007 22.9173C24.4481 22.9173 23.9182 22.6978 23.5275 22.3071C23.1368 21.9164 22.9173 21.3865 22.9173 20.834V14.584ZM14.584 14.584H18.7507V20.834C18.7507 21.3865 18.5312 21.9164 18.1405 22.3071C17.7498 22.6978 17.2199 22.9173 16.6673 22.9173C16.1148 22.9173 15.5849 22.6978 15.1942 22.3071C14.8035 21.9164 14.584 21.3865 14.584 20.834V14.584ZM8.33398 22.9173C7.78145 22.9173 7.25155 22.6978 6.86085 22.3071C6.47014 21.9164 6.25065 21.3865 6.25065 20.834V14.584H10.4173V20.834C10.4173 21.3865 10.1978 21.9164 9.80712 22.3071C9.41642 22.6978 8.88652 22.9173 8.33398 22.9173ZM29.1673 43.7507H20.834V39.584C20.834 38.4789 21.273 37.4191 22.0544 36.6377C22.8358 35.8563 23.8956 35.4173 25.0007 35.4173C26.1057 35.4173 27.1655 35.8563 27.9469 36.6377C28.7283 37.4191 29.1673 38.4789 29.1673 39.584V43.7507ZM39.584 43.7507H33.334V39.584C33.334 37.3738 32.456 35.2542 30.8932 33.6914C29.3304 32.1286 27.2108 31.2507 25.0007 31.2507C22.7905 31.2507 20.6709 32.1286 19.1081 33.6914C17.5453 35.2542 16.6673 37.3738 16.6673 39.584V43.7507H10.4173V26.709C11.1831 26.4247 11.8895 26.0009 12.5007 25.459C13.6465 26.4839 15.13 27.0505 16.6673 27.0505C18.2047 27.0505 19.6881 26.4839 20.834 25.459C21.9799 26.4839 23.4633 27.0505 25.0007 27.0505C26.538 27.0505 28.0214 26.4839 29.1673 25.459C30.3132 26.4839 31.7966 27.0505 33.334 27.0505C34.8713 27.0505 36.3548 26.4839 37.5007 25.459C38.1118 26.0009 38.8182 26.4247 39.584 26.709V43.7507ZM43.7507 20.834C43.7507 21.3865 43.5312 21.9164 43.1405 22.3071C42.7498 22.6978 42.2199 22.9173 41.6673 22.9173C41.1148 22.9173 40.5849 22.6978 40.1942 22.3071C39.8035 21.9164 39.584 21.3865 39.584 20.834V14.584H43.7507V20.834ZM8.95899 6.25065H41.6673C42.2199 6.25065 42.7498 6.03116 43.1405 5.64046C43.5312 5.24976 43.7507 4.71985 43.7507 4.16732C43.7507 3.61478 43.5312 3.08488 43.1405 2.69418C42.7498 2.30348 42.2199 2.08398 41.6673 2.08398H8.95899C8.40645 2.08398 7.87655 2.30348 7.48585 2.69418C7.09514 3.08488 6.87565 3.61478 6.87565 4.16732C6.87565 4.71985 7.09514 5.24976 7.48585 5.64046C7.87655 6.03116 8.40645 6.25065 8.95899 6.25065Z" fill="#F0F0F0"/>
  </svg>