<svg width="24" height="24" viewBox="0 0 24 24" fill="none" xmlns="http://www.w3.org/2000/svg">
<path fill-rule="evenodd" clip-rule="evenodd" d="M9.77018 1.55634C10.588 -0.518789 13.412 -0.518775 14.2298 1.55635L16.3074 6.82795L21.7672 7.2552C23.9163 7.42339 24.789 10.2183 23.1453 11.669L18.9696 15.3543L20.2663 20.89C20.7767 23.069 18.4921 24.7964 16.6583 23.6178L12 20.6239L7.34166 23.6179C5.50793 24.7964 3.22331 23.069 3.73374 20.89L5.03042 15.3543L0.854727 11.669C-0.789001 10.2183 0.0836393 7.42339 2.23283 7.2552L7.69256 6.82795L9.77018 1.55634ZM12 2.50806L9.92238 7.77967C9.57619 8.65808 8.78304 9.25776 7.87329 9.32895L2.41355 9.75621L6.58924 13.4415C7.28504 14.0556 7.588 15.0259 7.37193 15.9483L6.07525 21.4839L10.7336 18.49C11.5098 17.9911 12.4902 17.9911 13.2664 18.49L17.9248 21.4839L16.6281 15.9483C16.412 15.0259 16.715 14.0556 17.4108 13.4415L21.5864 9.75621L16.1267 9.32895C15.217 9.25776 14.4238 8.65808 14.0776 7.77967L12 2.50806Z" fill="#fff"/>
</svg>
