<svg width="28" height="28" viewBox="0 0 28 28" fill="none" xmlns="http://www.w3.org/2000/svg">
<path d="M17.4236 15.3681C17.926 15.5688 18.1784 16.147 17.8774 16.5965C17.534 17.1093 17.0905 17.5517 16.57 17.8952C15.7753 18.4196 14.8392 18.6884 13.8873 18.6655C12.9355 18.6426 12.0134 18.329 11.2448 17.7669C10.7415 17.3988 10.3198 16.9356 10.0015 16.4069C9.72249 15.9434 10.0024 15.378 10.5139 15.2017C11.0253 15.0254 11.5721 15.3155 11.918 15.7314C12.0591 15.9011 12.2212 16.0538 12.4014 16.1856C12.8473 16.5117 13.3822 16.6936 13.9345 16.7069C14.4868 16.7202 15.0299 16.5642 15.491 16.26C15.6772 16.1371 15.8465 15.9923 15.9956 15.8296C16.3612 15.4308 16.9212 15.1674 17.4236 15.3681Z" fill="#000"/>
<path d="M11.6663 10.5002C11.6663 9.85583 11.144 9.3335 10.4997 9.3335C9.85534 9.3335 9.33301 9.85583 9.33301 10.5002V11.6668C9.33301 12.3112 9.85534 12.8335 10.4997 12.8335C11.144 12.8335 11.6663 12.3112 11.6663 11.6668V10.5002Z" fill="#000"/>
<path d="M18.6663 10.5002C18.6663 9.85583 18.144 9.3335 17.4997 9.3335C16.8553 9.3335 16.333 9.85583 16.333 10.5002V11.6668C16.333 12.3112 16.8553 12.8335 17.4997 12.8335C18.144 12.8335 18.6663 12.3112 18.6663 11.6668V10.5002Z" fill="#000"/>
<path fill-rule="evenodd" clip-rule="evenodd" d="M2.33301 14.0002C2.33301 7.55684 7.55635 2.3335 13.9997 2.3335C20.443 2.3335 25.6663 7.55684 25.6663 14.0002C25.6663 20.4435 20.443 25.6668 13.9997 25.6668C7.55635 25.6668 2.33301 20.4435 2.33301 14.0002ZM13.9997 4.66683C8.84502 4.66683 4.66634 8.8455 4.66634 14.0002C4.66634 19.1548 8.84502 23.3335 13.9997 23.3335C19.1543 23.3335 23.333 19.1548 23.333 14.0002C23.333 8.8455 19.1543 4.66683 13.9997 4.66683Z" fill="#000"/>
</svg>
