<svg width="141" height="134" viewBox="0 0 141 134" fill="none" xmlns="http://www.w3.org/2000/svg">
<g clip-path="url(#clip0_5020_56969)">
<path fill-rule="evenodd" clip-rule="evenodd" d="M30.1004 0.675781C32.5151 0.675781 34.4908 2.63415 34.4908 5.06839V13.7621H25.7279V20.57C25.7279 22.9859 27.7036 24.9626 30.1184 24.9626C32.5331 24.9626 34.5088 23.0043 34.5088 20.57V13.7615H85.1262V5.06839C85.1262 2.65245 87.1019 0.675781 89.5167 0.675781C91.9314 0.675781 93.9071 2.63415 93.9071 5.06839V13.7621H85.1452V20.57C85.1452 22.9859 87.1209 24.9626 89.5356 24.9626C91.9503 24.9626 93.926 23.0043 93.926 20.57V13.7615H107.811C114.067 13.7615 119.134 18.8313 119.134 25.0907V67.3147C116.701 66.8205 114.195 66.5643 111.616 66.5643C111.288 66.5643 110.966 66.5839 110.644 66.6036C110.426 66.6168 110.209 66.6301 109.988 66.6375V55.4729H9.64798V105.475C9.64798 106.665 10.6175 107.653 11.8249 107.653H74.1691L74.1874 107.635C74.4801 110.82 75.1935 113.876 76.2363 116.786H11.8432C5.58682 116.786 0.519531 111.717 0.519531 105.457V25.0907C0.519531 18.8313 5.58682 13.7615 11.8432 13.7615H25.71V5.06839C25.71 2.65245 27.6857 0.675781 30.1004 0.675781ZM82.6926 104.158C82.6926 88.1987 95.6261 75.2405 111.596 75.2405C127.548 75.2405 140.5 88.1987 140.5 104.158C140.5 120.118 127.548 133.076 111.596 133.076C95.6444 133.076 82.6926 120.118 82.6926 104.158ZM119.499 117.757C120.432 117.757 121.365 117.391 122.078 116.677H122.097C123.524 115.25 123.524 112.925 122.097 111.498L114.706 104.104V87.7777C114.706 85.7644 113.06 84.1172 111.048 84.1172C109.035 84.1172 107.389 85.7644 107.389 87.7777V107.142L116.92 116.677C117.633 117.391 118.566 117.757 119.499 117.757Z" fill="#333333"/>
<path fill-rule="evenodd" clip-rule="evenodd" d="M30.1004 0.675781C32.5151 0.675781 34.4908 2.63415 34.4908 5.06839V13.7621H25.7279V20.57C25.7279 22.9859 27.7036 24.9626 30.1184 24.9626C32.5331 24.9626 34.5088 23.0043 34.5088 20.57V13.7615H85.1262V5.06839C85.1262 2.65245 87.1019 0.675781 89.5167 0.675781C91.9314 0.675781 93.9071 2.63415 93.9071 5.06839V13.7621H85.1452V20.57C85.1452 22.9859 87.1209 24.9626 89.5356 24.9626C91.9503 24.9626 93.926 23.0043 93.926 20.57V13.7615H107.811C114.067 13.7615 119.134 18.8313 119.134 25.0907V67.3147C116.701 66.8205 114.195 66.5643 111.616 66.5643C111.288 66.5643 110.966 66.5839 110.644 66.6036C110.426 66.6168 110.209 66.6301 109.988 66.6375V55.4729H9.64798V105.475C9.64798 106.665 10.6175 107.653 11.8249 107.653H74.1691L74.1874 107.635C74.4801 110.82 75.1935 113.876 76.2363 116.786H11.8432C5.58682 116.786 0.519531 111.717 0.519531 105.457V25.0907C0.519531 18.8313 5.58682 13.7615 11.8432 13.7615H25.71V5.06839C25.71 2.65245 27.6857 0.675781 30.1004 0.675781ZM82.6926 104.158C82.6926 88.1987 95.6261 75.2405 111.596 75.2405C127.548 75.2405 140.5 88.1987 140.5 104.158C140.5 120.118 127.548 133.076 111.596 133.076C95.6444 133.076 82.6926 120.118 82.6926 104.158ZM119.499 117.757C120.432 117.757 121.365 117.391 122.078 116.677H122.097C123.524 115.25 123.524 112.925 122.097 111.498L114.706 104.104V87.7777C114.706 85.7644 113.06 84.1172 111.048 84.1172C109.035 84.1172 107.389 85.7644 107.389 87.7777V107.142L116.92 116.677C117.633 117.391 118.566 117.757 119.499 117.757Z" fill="url(#paint0_linear_5020_56969)" fill-opacity="0.2"/>
</g>
<defs>
<linearGradient id="paint0_linear_5020_56969" x1="70.5007" y1="26.9258" x2="70.5098" y2="133.076" gradientUnits="userSpaceOnUse">
<stop stop-color="white"/>
<stop offset="1" stop-opacity="0"/>
</linearGradient>
<clipPath id="clip0_5020_56969">
<rect width="140" height="132.419" fill="white" transform="translate(0.5 0.675781)"/>
</clipPath>
</defs>
</svg>
