<svg xmlns="http://www.w3.org/2000/svg" width="50" height="50" viewBox="0 0 50 50" fill="none">
  <path d="M25.6257 25.4577C26.7373 24.4955 27.6289 23.3054 28.24 21.9681C28.8511 20.6309 29.1673 19.1779 29.1673 17.7077C29.1673 14.945 28.0699 12.2955 26.1163 10.342C24.1628 8.38848 21.5133 7.29102 18.7507 7.29102C15.988 7.29102 13.3385 8.38848 11.385 10.342C9.43145 12.2955 8.33398 14.945 8.33398 17.7077C8.33397 19.1779 8.65024 20.6309 9.26133 21.9681C9.87242 23.3054 10.764 24.4955 11.8757 25.4577C8.95928 26.7783 6.48495 28.9109 4.74853 31.6005C3.0121 34.2901 2.08705 37.4229 2.08398 40.6243C2.08398 41.1769 2.30348 41.7068 2.69418 42.0975C3.08488 42.4882 3.61478 42.7077 4.16732 42.7077C4.71985 42.7077 5.24976 42.4882 5.64046 42.0975C6.03116 41.7068 6.25065 41.1769 6.25065 40.6243C6.25065 37.3091 7.56761 34.1297 9.91182 31.7855C12.256 29.4413 15.4354 28.1243 18.7507 28.1243C22.0659 28.1243 25.2453 29.4413 27.5895 31.7855C29.9337 34.1297 31.2507 37.3091 31.2507 40.6243C31.2507 41.1769 31.4701 41.7068 31.8608 42.0975C32.2515 42.4882 32.7815 42.7077 33.334 42.7077C33.8865 42.7077 34.4164 42.4882 34.8071 42.0975C35.1978 41.7068 35.4173 41.1769 35.4173 40.6243C35.4143 37.4229 34.4892 34.2901 32.7528 31.6005C31.0163 28.9109 28.542 26.7783 25.6257 25.4577ZM18.7507 23.9577C17.5145 23.9577 16.3061 23.5911 15.2783 22.9044C14.2505 22.2176 13.4495 21.2415 12.9764 20.0995C12.5034 18.9574 12.3796 17.7007 12.6207 16.4884C12.8619 15.276 13.4572 14.1623 14.3312 13.2883C15.2053 12.4142 16.319 11.8189 17.5313 11.5778C18.7437 11.3366 20.0004 11.4604 21.1424 11.9334C22.2845 12.4065 23.2606 13.2076 23.9473 14.2354C24.6341 15.2632 25.0007 16.4715 25.0007 17.7077C25.0007 19.3653 24.3422 20.955 23.1701 22.1271C21.998 23.2992 20.4083 23.9577 18.7507 23.9577ZM39.0423 24.6243C40.3756 23.123 41.2465 21.2682 41.5502 19.2834C41.854 17.2986 41.5776 15.2683 40.7543 13.4368C39.9311 11.6054 38.5961 10.051 36.91 8.96065C35.2239 7.87029 33.2586 7.29048 31.2507 7.29102C30.6981 7.29102 30.1682 7.51051 29.7775 7.90121C29.3868 8.29191 29.1673 8.82182 29.1673 9.37435C29.1673 9.92688 29.3868 10.4568 29.7775 10.8475C30.1682 11.2382 30.6981 11.4577 31.2507 11.4577C32.9083 11.4577 34.498 12.1162 35.6701 13.2883C36.8422 14.4604 37.5007 16.0501 37.5007 17.7077C37.4977 18.8019 37.2075 19.8762 36.6591 20.8231C36.1107 21.7701 35.3233 22.5564 34.3757 23.1035C34.0668 23.2817 33.8088 23.5361 33.6264 23.8426C33.444 24.149 33.3433 24.4971 33.334 24.8535C33.3253 25.2072 33.4068 25.5573 33.5708 25.8707C33.7348 26.1842 33.976 26.4507 34.2715 26.6452L35.084 27.1868L35.3548 27.3327C37.8661 28.5238 39.9846 30.4077 41.461 32.7625C42.9374 35.1173 43.7101 37.845 43.6882 40.6243C43.6882 41.1769 43.9076 41.7068 44.2984 42.0975C44.689 42.4882 45.219 42.7077 45.7715 42.7077C46.324 42.7077 46.8539 42.4882 47.2446 42.0975C47.6353 41.7068 47.8548 41.1769 47.8548 40.6243C47.8718 37.4273 47.0711 34.279 45.5287 31.4786C43.9863 28.6782 41.7535 26.3187 39.0423 24.6243Z" fill="#F0F0F0"/>
  </svg>
  