<svg width="141" height="134" viewBox="0 0 141 134" fill="none" xmlns="http://www.w3.org/2000/svg">
  <g clip-path="url(#clip0_5020_65160)">
    <path fill-rule="evenodd" clip-rule="evenodd"
      d="M30.0994 0.675293C32.5142 0.675293 34.4899 2.63366 34.4899 5.0679V13.7616H25.727V20.5695C25.727 22.9855 27.7027 24.9621 30.1174 24.9621C32.5321 24.9621 34.5078 23.0038 34.5078 20.5695V13.761H85.1252V5.0679C85.1252 2.65197 87.1009 0.675293 89.5157 0.675293C91.9304 0.675293 93.9061 2.63366 93.9061 5.0679V13.7616H85.1442V20.5695C85.1442 22.9855 87.1199 24.9621 89.5346 24.9621C91.9494 24.9621 93.9251 23.0038 93.9251 20.5695V13.761H107.81C114.066 13.761 119.133 18.8308 119.133 25.0903V67.3142C116.7 66.82 114.194 66.5638 111.615 66.5638C111.287 66.5638 110.965 66.5834 110.643 66.6031C110.425 66.6163 110.208 66.6296 109.987 66.637V55.4724H9.647V105.475C9.647 106.665 10.6166 107.653 11.8239 107.653H74.1681L74.1864 107.635C74.4791 110.819 75.1925 113.876 76.2353 116.786H11.8422C5.58585 116.786 0.518555 111.716 0.518555 105.457V25.0903C0.518555 18.8308 5.58585 13.761 11.8422 13.761H25.709V5.0679C25.709 2.65197 27.6847 0.675293 30.0994 0.675293ZM99.3729 127.538H115.373C120.771 127.538 125.143 123.165 125.143 117.767V83.9355C125.143 80.5645 122.408 77.8287 119.037 77.8287C118.621 77.8287 118.206 77.8776 117.815 77.9509V77.2669C117.815 73.896 115.079 71.1601 111.709 71.1601C110.902 71.1601 110.121 71.3067 109.412 71.5998C108.313 69.9876 106.481 68.9373 104.38 68.9373C101.156 68.9373 98.5179 71.4532 98.2981 74.6288C97.8828 74.5555 97.4676 74.5066 97.0523 74.5066C93.6814 74.5066 90.9455 77.2425 90.9455 80.6134V103.941L85.0586 100.815C83.2754 99.8619 81.0526 100.131 79.5381 101.474L74.4817 105.944L92.3135 124.533C94.1455 126.439 96.7348 127.538 99.3729 127.538ZM95.831 121.138L81.5167 106.237L82.7625 105.138L95.831 112.051V80.6134C95.831 79.9539 96.3684 79.392 97.0523 79.392C97.7363 79.392 98.2737 79.9294 98.2737 80.6134V98.2253H103.159V75.044C103.159 74.3601 103.696 73.8227 104.38 73.8227C105.064 73.8227 105.602 74.3601 105.602 75.044V98.2253H110.487V77.2669C110.487 76.5829 111.025 76.0455 111.709 76.0455C112.393 76.0455 112.93 76.5829 112.93 77.2669V98.2253H117.815V83.9355C117.815 83.2515 118.353 82.7141 119.037 82.7141C119.721 82.7141 120.258 83.2515 120.258 83.9355V117.767C120.258 120.454 118.06 122.652 115.373 122.652H99.3485C98.0294 122.652 96.7592 122.091 95.831 121.138Z"
      fill="#333333" />
    <path fill-rule="evenodd" clip-rule="evenodd"
      d="M30.0994 0.675293C32.5142 0.675293 34.4899 2.63366 34.4899 5.0679V13.7616H25.727V20.5695C25.727 22.9855 27.7027 24.9621 30.1174 24.9621C32.5321 24.9621 34.5078 23.0038 34.5078 20.5695V13.761H85.1252V5.0679C85.1252 2.65197 87.1009 0.675293 89.5157 0.675293C91.9304 0.675293 93.9061 2.63366 93.9061 5.0679V13.7616H85.1442V20.5695C85.1442 22.9855 87.1199 24.9621 89.5346 24.9621C91.9494 24.9621 93.9251 23.0038 93.9251 20.5695V13.761H107.81C114.066 13.761 119.133 18.8308 119.133 25.0903V67.3142C116.7 66.82 114.194 66.5638 111.615 66.5638C111.287 66.5638 110.965 66.5834 110.643 66.6031C110.425 66.6163 110.208 66.6296 109.987 66.637V55.4724H9.647V105.475C9.647 106.665 10.6166 107.653 11.8239 107.653H74.1681L74.1864 107.635C74.4791 110.819 75.1925 113.876 76.2353 116.786H11.8422C5.58585 116.786 0.518555 111.716 0.518555 105.457V25.0903C0.518555 18.8308 5.58585 13.761 11.8422 13.761H25.709V5.0679C25.709 2.65197 27.6847 0.675293 30.0994 0.675293ZM99.3729 127.538H115.373C120.771 127.538 125.143 123.165 125.143 117.767V83.9355C125.143 80.5645 122.408 77.8287 119.037 77.8287C118.621 77.8287 118.206 77.8776 117.815 77.9509V77.2669C117.815 73.896 115.079 71.1601 111.709 71.1601C110.902 71.1601 110.121 71.3067 109.412 71.5998C108.313 69.9876 106.481 68.9373 104.38 68.9373C101.156 68.9373 98.5179 71.4532 98.2981 74.6288C97.8828 74.5555 97.4676 74.5066 97.0523 74.5066C93.6814 74.5066 90.9455 77.2425 90.9455 80.6134V103.941L85.0586 100.815C83.2754 99.8619 81.0526 100.131 79.5381 101.474L74.4817 105.944L92.3135 124.533C94.1455 126.439 96.7348 127.538 99.3729 127.538ZM95.831 121.138L81.5167 106.237L82.7625 105.138L95.831 112.051V80.6134C95.831 79.9539 96.3684 79.392 97.0523 79.392C97.7363 79.392 98.2737 79.9294 98.2737 80.6134V98.2253H103.159V75.044C103.159 74.3601 103.696 73.8227 104.38 73.8227C105.064 73.8227 105.602 74.3601 105.602 75.044V98.2253H110.487V77.2669C110.487 76.5829 111.025 76.0455 111.709 76.0455C112.393 76.0455 112.93 76.5829 112.93 77.2669V98.2253H117.815V83.9355C117.815 83.2515 118.353 82.7141 119.037 82.7141C119.721 82.7141 120.258 83.2515 120.258 83.9355V117.767C120.258 120.454 118.06 122.652 115.373 122.652H99.3485C98.0294 122.652 96.7592 122.091 95.831 121.138Z"
      fill="url(#paint0_linear_5020_65160)" fill-opacity="0.2" />
  </g>
  <defs>
    <linearGradient id="paint0_linear_5020_65160" x1="62.831" y1="24.3003" x2="62.831" y2="127.538"
      gradientUnits="userSpaceOnUse">
      <stop stop-color="white" />
      <stop offset="1" stop-opacity="0" />
    </linearGradient>
    <clipPath id="clip0_5020_65160">
      <rect width="140" height="132.419" fill="white" transform="translate(0.5 0.675293)" />
    </clipPath>
  </defs>
</svg>
  